<?xml version="1.0" standalone="no"?>
<!DOCTYPE svg PUBLIC "-//W3C//DTD SVG 20010904//EN"
 "http://www.w3.org/TR/2001/REC-SVG-20010904/DTD/svg10.dtd">
<svg version="1.0" xmlns="http://www.w3.org/2000/svg"
 width="256.000000pt" height="256.000000pt" viewBox="0 0 256.000000 256.000000"
 preserveAspectRatio="xMidYMid meet">

<g transform="translate(0.000000,256.000000) scale(0.100000,-0.100000)"
fill="#000000" stroke="none">
<path d="M604 1904 c-59 -21 -123 -80 -150 -138 l-24 -51 0 -540 c0 -522 1
-542 21 -585 27 -60 74 -107 134 -136 l50 -24 407 0 406 0 23 -36 c42 -68 68
-74 372 -74 301 0 315 3 365 68 l27 35 3 251 c3 290 -2 318 -69 363 l-39 26 0
326 c0 321 -1 327 -24 377 -28 60 -91 117 -154 138 -66 23 -1285 22 -1348 0z
m1353 -120 c15 -12 37 -36 48 -55 18 -31 20 -56 22 -346 l3 -312 -230 -3 -231
-3 -202 162 c-111 89 -221 172 -245 183 -58 28 -154 29 -213 2 -24 -10 -117
-78 -206 -151 -90 -72 -165 -131 -167 -131 -6 0 -6 470 0 528 8 63 37 111 84
135 33 16 81 17 672 15 629 -3 637 -3 665 -24z m-867 -481 c21 -14 347 -271
373 -294 5 -4 -22 -53 -61 -110 -38 -57 -77 -119 -87 -138 -25 -49 -16 -116
23 -175 l31 -46 -362 0 c-344 0 -364 1 -395 20 -65 40 -72 65 -72 257 l0 172
178 142 c97 79 192 153 211 166 42 28 124 32 161 6z m1022 -360 c16 -15 18
-36 18 -249 0 -198 -2 -235 -16 -248 -13 -14 -52 -16 -273 -16 -233 0 -259 2
-273 18 -32 35 -158 231 -158 244 0 17 146 238 168 256 12 9 81 12 266 12 218
0 252 -2 268 -17z"/>
<path d="M1635 1696 c-88 -33 -155 -141 -141 -229 30 -184 251 -253 373 -114
88 100 61 261 -54 325 -54 29 -126 37 -178 18z m141 -130 c88 -88 -5 -217
-120 -165 -58 27 -72 122 -23 166 49 45 98 44 143 -1z"/>
</g>
</svg>
